<?xml version="1.0" encoding="iso-8859-1"?>
<!-- Generator: Adobe Illustrator 19.0.0, SVG Export Plug-In . SVG Version: 6.00 Build 0)  -->
<svg version="1.1" id="Layer_1" xmlns="http://www.w3.org/2000/svg" xmlns:xlink="http://www.w3.org/1999/xlink" x="0px" y="0px"
	 viewBox="0 0 512 512" style="enable-background:new 0 0 512 512;" xml:space="preserve">
<path style="fill:#CCCCCC;" d="M341.428,213.313l15.163,94.691c-0.382-10.017,12.883-24.905,29.609-42.17
	c31.233-32.248,74.549-72.782,63.517-105.328c-5.086-15.032-16.918-16.249-30.959-10.59
	C386.105,163.048,341.428,213.313,341.428,213.313z"/>
<path style="fill:#E6E6E6;" d="M381.14,381.038c-7.82,41.573-15.64,69.188-15.64,69.188l-12.775,54.61
	c-21.515,0-17.897-36.212-44.939-36.14h-0.012c-3.104,0.752-6.208,1.457-9.325,2.113C280.6,479.49,276.66,512,236.317,512
	c-45.214,0-41.37-30.815-70.358-35.137c-0.549-0.072-1.098-0.143-1.648-0.215c-0.334-0.036-0.669-0.072-1.015-0.107
	c-31.938-2.782-50.539,33.669-80.984,24.714c-12.178-3.582-17.897-12.465-20.38-21.825c-3.582-13.551-0.155-27.998,8.525-38.994
	c55.768-70.549,49.56-224.399,57.44-322.862c2.054-25.622,9.444-45.907,19.389-61.929C177.563,6.92,238.621-12.171,292.384,7.864
	c6.746,2.519,13.085,5.468,19.043,8.823c0.012,0,0.012,0,0.012,0c28.583,16.07,48.342,41.346,61.595,71.803
	c2.698,6.208,5.134,12.62,7.319,19.222C408.47,192.923,394.799,308.34,381.14,381.038z"/>
<path style="fill:#CCCCCC;" d="M311.426,16.684c-1.23-0.215-103.878-5.4-119.876,63.931
	c-16.106,69.833,20.458,303.596-25.592,396.245c-0.549-0.072-1.098-0.143-1.648-0.215c-0.334-0.036-0.669-0.072-1.015-0.107
	c-31.938-2.782-50.539,33.669-80.984,24.714c-12.178-3.582-17.897-12.465-20.38-21.825c-3.582-13.551-0.155-27.998,8.525-38.994
	c55.768-70.549,49.56-224.399,57.44-322.862c2.054-25.622,9.444-45.907,19.389-61.929C177.562,6.918,238.62-12.173,292.383,7.861
	C299.128,10.38,305.468,13.329,311.426,16.684z"/>
<path style="fill:#4D4D4D;" d="M363.162,176.549c0-27.693-22.449-25.071-50.143-25.071s-50.143-2.622-50.143,25.071
	s22.449,50.143,50.143,50.143S363.162,204.242,363.162,176.549z"/>
<path style="fill:#F4516D;" d="M352.581,207.355c-9.169,11.772-23.473,19.342-39.555,19.342c-16.082,0-30.397-7.57-39.567-19.342
	c9.157-11.784,23.473-19.354,39.567-19.354C329.108,188.001,343.423,195.571,352.581,207.355z"/>
<g>
	<path style="fill:#4D4D4D;" d="M252.653,120.956c-1.934-2.779-2.732-6.263-2.605-9.814c0.14-3.559,1.31-7.162,3.286-10.367
		c1.993-3.194,4.839-5.951,8.213-7.925c3.367-1.984,7.26-3.167,11.179-3.429c3.918-0.263,7.935,0.398,11.536,1.921
		c3.604,1.516,6.795,3.872,9.188,6.782c2.381,2.92,4.015,6.341,4.617,9.856c0.586,3.508,0.247,7.07-1.317,10.08
		c-3.811-5.511-7.732-8.562-11.665-10.396c-3.932-1.804-7.615-2.37-11.303-2.165c-3.687,0.26-7.272,1.306-10.94,3.609
		C259.175,111.444,255.69,114.995,252.653,120.956z"/>
	<path style="fill:#4D4D4D;" d="M380.352,107.712c-2.221-2.233-4.453-3.713-6.698-4.764c-3.486-1.6-6.77-2.101-10.041-1.922
		c-3.283,0.239-6.471,1.17-9.73,3.212c-3.259,2.077-6.352,5.229-9.05,10.53c-1.719-2.471-2.436-5.564-2.316-8.728
		c0.119-3.164,1.158-6.364,2.913-9.217c1.779-2.83,4.31-5.289,7.307-7.044c2.997-1.755,6.447-2.806,9.934-3.045
		c3.486-0.239,7.056,0.358,10.256,1.707c0.036,0.012,0.072,0.036,0.107,0.048C375.732,94.698,378.168,101.109,380.352,107.712z"/>
</g>
<path style="fill:#E6E6E6;" d="M206.718,213.313l-15.163,94.691c0.382-10.017-12.882-24.905-29.609-42.17
	c-31.233-32.248-74.549-72.782-63.517-105.328c5.086-15.032,16.918-16.249,30.959-10.59
	C162.041,163.048,206.718,213.313,206.718,213.313z"/>
<path style="fill:#CCCCCC;" d="M161.946,265.834c-31.233-32.248-74.549-72.782-63.517-105.328
	c5.086-15.032,16.918-16.249,30.959-10.59C129.387,149.915,99.372,190.64,161.946,265.834z"/>
<g>
</g>
<g>
</g>
<g>
</g>
<g>
</g>
<g>
</g>
<g>
</g>
<g>
</g>
<g>
</g>
<g>
</g>
<g>
</g>
<g>
</g>
<g>
</g>
<g>
</g>
<g>
</g>
<g>
</g>
</svg>
