<?xml version="1.0" encoding="iso-8859-1"?>
<!-- Generator: Adobe Illustrator 17.1.0, SVG Export Plug-In . SVG Version: 6.00 Build 0)  -->
<!DOCTYPE svg PUBLIC "-//W3C//DTD SVG 1.1//EN" "http://www.w3.org/Graphics/SVG/1.1/DTD/svg11.dtd">
<svg xmlns="http://www.w3.org/2000/svg" xmlns:xlink="http://www.w3.org/1999/xlink" version="1.1" id="Capa_1" x="0px" y="0px" viewBox="0 0 234 234" style="enable-background:new 0 0 234 234;" xml:space="preserve" width="512px" height="512px">
<g>
	<path d="M7.5,42.571h39.235c3.327,12.646,14.856,22,28.531,22s25.204-9.354,28.531-22H226.5   c4.142,0,7.5-3.358,7.5-7.5s-3.358-7.5-7.5-7.5H103.796c-3.327-12.646-14.856-22-28.531-22s-25.204,9.354-28.531,22H7.5   c-4.142,0-7.5,3.358-7.5,7.5S3.358,42.571,7.5,42.571z M75.266,20.571c7.995,0,14.5,6.505,14.5,14.5s-6.505,14.5-14.5,14.5   c-7.995,0-14.5-6.505-14.5-14.5S67.271,20.571,75.266,20.571z" fill="#FFFFFF"/>
	<path d="M226.5,109.5h-49.99c-3.327-12.646-14.856-22-28.531-22c-13.675,0-25.204,9.354-28.531,22H7.5   c-4.142,0-7.5,3.358-7.5,7.5s3.358,7.5,7.5,7.5h111.949c3.327,12.645,14.856,22,28.531,22c13.675,0,25.204-9.355,28.531-22h49.99   c4.142,0,7.5-3.358,7.5-7.5S230.642,109.5,226.5,109.5z M147.98,131.5c-7.995,0-14.5-6.505-14.5-14.5s6.505-14.5,14.5-14.5   c7.995,0,14.5,6.505,14.5,14.5S155.975,131.5,147.98,131.5z" fill="#FFFFFF"/>
	<path d="M226.5,191.429H103.796c-3.327-12.645-14.856-22-28.531-22s-25.204,9.355-28.531,22H7.5   c-4.142,0-7.5,3.358-7.5,7.5c0,4.142,3.358,7.5,7.5,7.5h39.235c3.327,12.646,14.856,22,28.531,22s25.204-9.354,28.531-22H226.5   c4.142,0,7.5-3.358,7.5-7.5C234,194.787,230.642,191.429,226.5,191.429z M75.266,213.429c-7.995,0-14.5-6.505-14.5-14.5   s6.505-14.5,14.5-14.5c7.995,0,14.5,6.505,14.5,14.5S83.261,213.429,75.266,213.429z" fill="#FFFFFF"/>
</g>
<g>
</g>
<g>
</g>
<g>
</g>
<g>
</g>
<g>
</g>
<g>
</g>
<g>
</g>
<g>
</g>
<g>
</g>
<g>
</g>
<g>
</g>
<g>
</g>
<g>
</g>
<g>
</g>
<g>
</g>
</svg>
