<?xml version="1.0" encoding="iso-8859-1"?>
<!-- Generator: Adobe Illustrator 16.0.0, SVG Export Plug-In . SVG Version: 6.00 Build 0)  -->
<!DOCTYPE svg PUBLIC "-//W3C//DTD SVG 1.1//EN" "http://www.w3.org/Graphics/SVG/1.1/DTD/svg11.dtd">
<svg xmlns="http://www.w3.org/2000/svg" xmlns:xlink="http://www.w3.org/1999/xlink" version="1.1" id="Capa_1" x="0px" y="0px" width="512px" height="512px" viewBox="0 0 400 400" style="enable-background:new 0 0 400 400;" xml:space="preserve">
<g>
	<g>
		<path d="M199.992,0C89.717,0,0,89.72,0,200s89.717,200,199.992,200C310.273,400,400,310.28,400,200S310.273,0,199.992,0z     M199.992,373.77C104.178,373.77,26.23,295.816,26.23,200c0-95.817,77.947-173.769,173.762-173.769    c95.822,0,173.776,77.953,173.776,173.769C373.769,295.816,295.814,373.77,199.992,373.77z" fill="#D80027"/>
		<path d="M265.473,134.529c-5.123-5.123-13.422-5.123-18.545,0L200,181.454l-46.928-46.925c-5.123-5.123-13.424-5.123-18.547,0    c-5.123,5.12-5.123,13.426,0,18.546L181.447,200l-46.928,46.926c-5.123,5.119-5.123,13.422,0,18.547    c2.561,2.562,5.918,3.842,9.273,3.842s6.711-1.28,9.271-3.842L200,218.543l46.928,46.932c2.562,2.562,5.916,3.842,9.271,3.842    c3.354,0,6.711-1.279,9.272-3.842c5.123-5.119,5.123-13.426,0-18.545L218.545,200l46.928-46.925    C270.596,147.955,270.596,139.652,265.473,134.529z" fill="#D80027"/>
	</g>
</g>
<g>
</g>
<g>
</g>
<g>
</g>
<g>
</g>
<g>
</g>
<g>
</g>
<g>
</g>
<g>
</g>
<g>
</g>
<g>
</g>
<g>
</g>
<g>
</g>
<g>
</g>
<g>
</g>
<g>
</g>
</svg>
