<svg width="40px" height="40px" viewBox="0 0 40 40" xmlns="http://www.w3.org/2000/svg">
    <defs>
        <linearGradient x1="18.5864058%" y1="6.98348509%" x2="115.290196%" y2="118.722976%" id="a">
            <stop stop-color="#425A75" offset="0%" />
            <stop stop-color="#5478A1" offset="100%" />
        </linearGradient>
    </defs>
    <g fill="none" fill-rule="evenodd">
        <path d="M20 1.155l13.32 7.69a4 4 0 0 1 2 3.464v15.382a4 4 0 0 1-2 3.464L20 38.845a4 4 0 0 1-4 0l-13.32-7.69a4 4 0 0 1-2-3.464V12.309a4 4 0 0 1 2-3.464L16 1.155a4 4 0 0 1 4 0z" fill="url(#a)" transform="translate(2)" />
        <path d="M28.285 16.74c-.73-.511-1.51-1.055-2.273-1.595a.617.617 0 0 0-.055-.038 1.026 1.026 0 0 0-.3-.169l-.008-.004c-2.041-.494-4.116-1-6.124-1.489l-5.462-1.329a6.794 6.794 0 0 0-.144-.038c-.164-.046-.354-.097-.556-.071a.388.388 0 0 0-.156.059l-.05.042a.62.62 0 0 0-.144.228l-.013.033v.195l.008.029c1.152 3.227 2.333 6.5 3.472 9.667.877 2.438 1.788 4.965 2.678 7.445.055.168.21.278.405.295h.042a.475.475 0 0 0 .422-.232l3.34-4.872 2.443-3.56c.333-.484.666-.974 1-1.459.547-.801 1.113-1.628 1.674-2.433l.03-.043v-.05c.012-.148.016-.452-.229-.612m-3.914 1.776c-.784.409-1.586.83-2.391 1.248l1.409-1.51c.586-.632 1.197-1.286 1.796-1.927l.013-.013c.05-.067.114-.13.181-.198.047-.046.097-.093.144-.148.312.215.628.435.932.65.22.156.443.312.67.468-.927.472-1.855.957-2.754 1.43m-2.016-.203c-.603.654-1.227 1.325-1.847 1.987-1.202-1.46-2.43-2.94-3.62-4.37l-1.623-1.953-.004-.004c-.123-.139-.24-.29-.359-.434-.076-.097-.156-.19-.236-.287.49.127.983.245 1.468.359.426.1.869.206 1.303.316l7.343 1.784c-.814.869-1.632 1.75-2.425 2.602m-2.121 8.22c.046-.442.097-.897.139-1.345l.114-1.075c.059-.561.122-1.143.173-1.713l.012-.1c.042-.363.085-.739.11-1.114.046-.026.097-.05.152-.072.063-.03.126-.055.19-.093.974-.51 1.948-1.02 2.927-1.527.974-.506 1.974-1.029 2.965-1.548a841.347 841.347 0 0 0-2.687 3.915c-.755 1.1-1.531 2.235-2.303 3.353-.304.447-.62.902-.92 1.341-.337.49-.683.991-1.02 1.493.042-.506.093-1.016.148-1.514m-5.88-12.287c-.055-.151-.114-.307-.165-.455 1.14 1.375 2.286 2.758 3.404 4.1.578.696 1.156 1.387 1.734 2.087.114.131.228.27.337.405.144.173.287.355.443.528-.05.434-.093.873-.14 1.294-.029.296-.058.591-.092.89v.005c-.013.19-.038.38-.059.565l-.097.84-.004.029c-.076.852-.169 1.712-.258 2.547-.037.346-.071.7-.11 1.055-.02-.064-.046-.127-.067-.186a18.768 18.768 0 0 1-.185-.519l-.452-1.252c-1.43-3.978-2.86-7.951-4.29-11.933" fill="#FFF" fill-rule="nonzero" />
    </g>
</svg>
